<svg version="1.1" xmlns="http://www.w3.org/2000/svg" width="128" height="128">
<path d="M0 0 C0.495 1.485 0.495 1.485 1 3 C2.65 2.67 4.3 2.34 6 2 C8 5 8 5 8 7 C9.578076 7.84324672 11.1627042 8.67423918 12.75 9.5 C13.63171875 9.9640625 14.5134375 10.428125 15.421875 10.90625 C18.14696472 12.26036656 18.14696472 12.26036656 22 12 C22.7425 11.505 23.485 11.01 24.25 10.5 C27.93054343 8.49243086 30.89021257 8.39145135 35 9 C39.16507424 10.7585869 41.20882468 12.85201505 43 17 C43.76641144 22.80282946 42.46863218 27.35162954 39 32 C35.88840708 34.52463335 33.08945752 36 29 36 C28.9175 37.175625 28.835 38.35125 28.75 39.5625 C28.25025195 44.10368877 27.22652849 48.46520466 26.0625 52.875 C25.80774902 53.85641968 25.80774902 53.85641968 25.54785156 54.85766602 C24.68881856 58.01522591 23.83501587 60.2474762 22 63 C22.34592035 67.72757818 23.91927301 72.14915442 25.37890625 76.6328125 C26 79 26 79 26 83 C31.86576321 83.56845274 31.86576321 83.56845274 36.9375 80.9375 C39.54433184 77.2247395 40.38057365 75.56688376 40 71 C38.17175213 68.50225291 36.18979782 66.37725309 33.98046875 64.2109375 C31.34456646 61.26829313 30.08961855 58.71768883 29.8828125 54.75390625 C30.45945103 49.53625766 31.35965993 46.00437408 35 42 C39.45887956 38.87200274 44.4251135 35.87035148 50 36 C52.4375 37.5625 52.4375 37.5625 54 40 C54.375 42.9375 54.375 42.9375 53 46 C50.48468154 47.499683 47.96780167 48.63789763 45.25 49.7265625 C42.88932176 50.79702593 42.88932176 50.79702593 41.984375 52.90625 C42.00659177 55.8832978 43.18536709 56.78518864 45.25 58.875 C50.04282731 64.06962121 52.67359847 68.36444306 52.41796875 75.55859375 C51.40457847 81.4779295 48.57170525 86.46484604 44.3125 90.625 C42 92 42 92 40 92 C40 92.66 40 93.32 40 94 C40.886875 94.04125 41.77375 94.0825 42.6875 94.125 C47.12832715 95.29804868 48.42140412 97.2753615 51 101 C53.38279118 105.22403891 53.27143239 108.33808124 52 113 C49.8125 115 49.8125 115 47 117 C45.57995934 118.70083966 44.23432404 120.43660745 42.91796875 122.21875 C37.10247497 127.61969738 31.06785397 128.58724478 23.375 128.3125 C22.14523438 128.29799805 22.14523438 128.29799805 20.890625 128.28320312 C17.35267533 128.21779087 14.03562204 128.00599061 10.5390625 127.41796875 C8.01586626 126.74766858 8.01586626 126.74766858 6 128 C2.42021431 128.15564286 -0.54961944 127.86259514 -4 127 C-4.99 127.495 -4.99 127.495 -6 128 C-8.84960198 128.12389574 -11.35828919 128.16986463 -14.125 127.4375 C-16.42738409 126.90027705 -17.71890012 127.42454307 -20 128 C-23.08013542 128.26321289 -26.15975697 128.27678841 -29.25 128.3125 C-30.07113281 128.34150391 -30.89226563 128.37050781 -31.73828125 128.40039062 C-38.55104628 128.47056966 -43.85521786 126.92061234 -48.91796875 122.21875 C-49.54638672 121.36796875 -49.54638672 121.36796875 -50.1875 120.5 C-52.02867634 118.1255868 -53.30378681 116.78397383 -55.8125 115 C-58 113 -58 113 -59.0625 109.75 C-58.96185881 103.7115286 -56.73050854 99.73050854 -52.5 95.5 C-50 94 -50 94 -46 94 C-45.7525 93.0925 -45.505 92.185 -45.25 91.25 C-43.89438328 87.72539654 -43.06714884 86.17928996 -40 84 C-37.29733497 83.38387521 -34.78340401 83.18556027 -32 83 C-31.896875 81.865625 -31.79375 80.73125 -31.6875 79.5625 C-31.29665168 76.27237386 -30.51677643 73.41980023 -29.375 70.3125 C-27.61193777 65.25665977 -28.20094162 62.73708344 -30.4375 57.875 C-33.47225531 51.09491252 -34.02555966 43.30830255 -35 36 C-35.886875 35.938125 -36.77375 35.87625 -37.6875 35.8125 C-42.86924203 34.54150667 -45.03988076 31.52294777 -47.8125 27.125 C-49.22729203 23.40186309 -49.49447287 20.95578296 -49 17 C-47.38679279 13.94642921 -45.96939098 11.76166434 -43.25 9.625 C-39.79777884 8.66604968 -36.51900567 8.40897009 -33 9 C-30.97048465 10.28796166 -28.96498322 11.61558 -27 13 C-19.59561017 12.16700614 -12.38407535 5.75225464 -6.88671875 1.1015625 C-4.47892394 -0.30423074 -2.74088826 -0.1981365 0 0 Z " fill="#070503" transform="translate(67,0)"/>
<path d="M0 0 C2.52726683 2.19029792 4.50012869 4.00025739 6 7 C6.66 7 7.32 7 8 7 C8.61875 6.05125 9.2375 5.1025 9.875 4.125 C12.7804878 -0.14777618 12.7804878 -0.14777618 16 -1 C19.98194955 -0.91527767 21.64504255 -0.29041973 24.75 2.25 C28.83262588 7.23987608 29.63339085 11.61917371 29 18 C28.65427515 19.44482026 28.27965625 20.88306495 27.875 22.3125 C27.58625 23.529375 27.2975 24.74625 27 26 C27.66 26.99 28.32 27.98 29 29 C29 33.4712961 28.53469913 35.41183096 25.5 38.75 C17.85387881 44.2270088 9.17026552 44.98927713 0 44 C-5.08565281 42.77861527 -9.48785617 40.96823191 -13.1875 37.1875 C-15.45124823 33.20642552 -15.15164076 31.35978286 -14 27 C-13.67 26.01 -13.34 25.02 -13 24 C-13.309375 23.113125 -13.61875 22.22625 -13.9375 21.3125 C-15.76598671 15.61192378 -15.76103979 11.09014852 -13.3125 5.6875 C-10.11806606 -0.00643839 -6.43146385 -2.14382128 0 0 Z " fill="#F8BB93" transform="translate(57,26)"/>
<path d="M0 0 C0.60328125 0.34933594 1.2065625 0.69867188 1.828125 1.05859375 C3.02695312 1.74115234 3.02695312 1.74115234 4.25 2.4375 C5.03890625 2.88996094 5.8278125 3.34242187 6.640625 3.80859375 C13.86448757 7.45640515 23.61233888 7.08789248 31.32421875 5.17578125 C35.23024576 3.77294912 38.54035894 2.30642737 42 0 C42.65365399 1.53836708 43.29753603 3.08088766 43.9375 4.625 C44.47697266 5.91277344 44.47697266 5.91277344 45.02734375 7.2265625 C48.91044494 18.29885906 49.11184675 35.33077858 44 46 C43.34 46.99 42.68 47.98 42 49 C38.97514219 48.4118332 35.98613386 47.75929472 33 47 C32.86264341 40.23900356 33.26429936 33.69707301 34.07421875 26.98046875 C33.9848773 23.39270414 33.21264382 21.79877463 31 19 C26.23004814 15.56605216 19.56490451 16.2876358 14 17 C10.94544225 18.66668567 9.55108699 20.89782603 8 24 C8.09026395 26.00327726 8.24682296 28.00377616 8.4375 30 C8.93119493 35.69015058 9.11596512 41.29193901 9 47 C6.34635714 48.28891225 4.33941788 48.99191862 1.375 49.0625 C-1 48 -1 48 -2.75 44.75 C-7.11585233 31.65244302 -6.8715132 14.22672274 -0.8984375 1.6875 C-0.60195313 1.130625 -0.30546875 0.57375 0 0 Z " fill="#7A3B19" transform="translate(43,66)"/>
<path d="M0 0 C0 1.65 0 3.3 0 5 C0.598125 4.649375 1.19625 4.29875 1.8125 3.9375 C4 3 4 3 7 4 C7 4.66 7 5.32 7 6 C7.97839844 6.34611328 7.97839844 6.34611328 8.9765625 6.69921875 C18.02139088 10.07435383 23.60753072 14.19756155 28 23 C29.03590866 26.15952141 29.16451097 29.12248234 29.1875 32.4375 C29.20167969 33.36433594 29.21585938 34.29117188 29.23046875 35.24609375 C28.98241941 38.21007319 28.17273797 40.28236368 27 43 C26.58911437 44.59535222 26.21195834 46.19991364 25.875 47.8125 C25.70742187 48.60269531 25.53984375 49.39289062 25.3671875 50.20703125 C25.24601562 50.79871094 25.12484375 51.39039063 25 52 C24.34 51.34 23.68 50.68 23 50 C23.15068944 47.30531833 23.39196205 44.67843781 23.6875 42 C24.3096002 34.61712301 23.93788487 28.95338818 19 23 C15.5072233 20.34245251 13.80532463 19.9858715 9.4375 20.0625 C5.73793908 21.07147116 3.77192414 22.39607126 1 25 C-1.33125547 23.83437227 -3.5734165 22.6559501 -5.8125 21.3125 C-9.8167331 19.66369814 -11.85809445 19.79508202 -16 21 C-20.31470408 24.33408952 -22.33817868 27.83960747 -24 33 C-24.33407597 38.1781776 -23.82581866 42.99977877 -23.0234375 48.1171875 C-23.01570313 48.73851562 -23.00796875 49.35984375 -23 50 C-23.66 50.66 -24.32 51.32 -25 52 C-26.79036459 50.20963541 -26.63091078 47.4875315 -27 45.0625 C-27.56258601 40.89319459 -27.56258601 40.89319459 -29 37 C-29.72995587 28.82449422 -27.43265402 21.75885588 -22.375 15.25 C-19.23373903 11.86283224 -15.54598016 9.73505467 -11.54296875 7.48828125 C-8.32072033 5.60244922 -5.42930621 3.40327851 -2.49609375 1.1015625 C-1 0 -1 0 0 0 Z " fill="#793B19" transform="translate(64,3)"/>
<path d="M0 0 C2.96912882 1.38980498 4.69657028 2.69657028 7 5 C7.38915455 8.99048314 7.13600132 12.99702776 7 17 C6.98195313 18.16917969 6.96390625 19.33835937 6.9453125 20.54296875 C6.90148437 21.68378906 6.85765625 22.82460937 6.8125 24 C6.77769531 25.051875 6.74289063 26.10375 6.70703125 27.1875 C5.77686389 30.88761324 4.04769985 31.83650937 1 34 C-0.33298974 36.61818456 -0.33298974 36.61818456 -1 39 C-2.98 39 -4.96 39 -7 39 C-7.4125 38.071875 -7.825 37.14375 -8.25 36.1875 C-9.68721986 32.96972318 -9.68721986 32.96972318 -12.0625 31.671875 C-14 30 -14 30 -14.609375 27.28515625 C-14.75897573 23.85680627 -14.89856047 20.43015875 -15 17 C-15.08636719 15.89527344 -15.17273437 14.79054688 -15.26171875 13.65234375 C-15.67573404 6.22766948 -15.67573404 6.22766948 -13.9765625 3.140625 C-10.01461751 -0.75565239 -5.16288796 -0.89540861 0 0 Z " fill="#FBBD94" transform="translate(68,84)"/>
<path d="M0 0 C2.3125 0.4375 2.3125 0.4375 5 2 C5.75390625 3.92578125 5.75390625 3.92578125 6.375 6.25 C7.65519252 10.8263204 9.52471359 12.89353519 13.28125 15.7109375 C15.02093341 17.01570005 16.49671625 18.4325517 18 20 C17.195625 20.763125 16.39125 21.52625 15.5625 22.3125 C12.83200976 24.79430898 12.83200976 24.79430898 12 28 C8.08660822 27.47189523 6.01570491 26.54980164 3.125 23.875 C2.10792969 22.93720703 2.10792969 22.93720703 1.0703125 21.98046875 C0.38710938 21.32691406 -0.29609375 20.67335938 -1 20 C-1.68320312 19.35675781 -2.36640625 18.71351562 -3.0703125 18.05078125 C-6.67113861 14.57387021 -6.67113861 14.57387021 -8 13 C-8 12.34 -8 11.68 -8 11 C-7.01 10.67 -6.02 10.34 -5 10 C-5.66 9.67 -6.32 9.34 -7 9 C-6.67 8.01 -6.34 7.02 -6 6 C-4.68 6.66 -3.36 7.32 -2 8 C-2.66 6.35 -3.32 4.7 -4 3 C-1 3 -1 3 1 4 C0.67 2.68 0.34 1.36 0 0 Z " fill="#F7BA92" transform="translate(19,97)"/>
<path d="M0 0 C-0.33 1.32 -0.66 2.64 -1 4 C0.32 3.34 1.64 2.68 3 2 C3 5 3 5 2 8 C3.32 7.34 4.64 6.68 6 6 C6.33 6.99 6.66 7.98 7 9 C6.01 9.99 5.02 10.98 4 12 C5.32 11.67 6.64 11.34 8 11 C6.39658432 14.91122205 3.73824569 17.66362276 0.8125 20.625 C0.12704102 21.35976562 0.12704102 21.35976562 -0.57226562 22.109375 C-4.20813743 25.8007178 -7.07895446 26.95818463 -12 28 C-12.433125 27.071875 -12.86625 26.14375 -13.3125 25.1875 C-14.7509985 22.47033617 -15.82081239 21.03268761 -18 19 C-17.38511719 18.55269531 -16.77023438 18.10539062 -16.13671875 17.64453125 C-10.57698146 13.48581229 -7.13412422 10.46908586 -4.9375 3.75 C-3.8426844 0.53854092 -3.36069823 0 0 0 Z " fill="#F8BA92" transform="translate(109,97)"/>
<path d="M0 0 C0 1.32 0 2.64 0 4 C-0.93972656 4.50660156 -0.93972656 4.50660156 -1.8984375 5.0234375 C-2.71570313 5.46945313 -3.53296875 5.91546875 -4.375 6.375 C-5.59316406 7.03628906 -5.59316406 7.03628906 -6.8359375 7.7109375 C-9.10814302 8.9443893 -9.10814302 8.9443893 -11 11 C-11.22154804 16.42792691 -9.61606745 18.79464728 -6 22.8125 C-5.278125 23.56144531 -4.55625 24.31039062 -3.8125 25.08203125 C-0.89079696 28.17374718 -0.65340668 30.53773128 -0.72265625 34.77734375 C-1.40601954 40.25387492 -4.07440478 44.48735473 -8.25 48 C-9.1575 48.66 -10.065 49.32 -11 50 C-12.5 48.625 -12.5 48.625 -14 47 C-14 46.34 -14 45.68 -14 45 C-13.21625 44.401875 -12.4325 43.80375 -11.625 43.1875 C-8.00436671 40.1703056 -7.20601779 37.80391185 -6.6796875 33.1953125 C-7.09983808 29.0040543 -8.67027165 27.37554341 -11.4375 24.25 C-16.88530422 18.00932287 -16.88530422 18.00932287 -17.3125 14.25 C-16.85489015 9.49085753 -14.87697666 6.73154505 -11.38671875 3.51171875 C-7.57163904 0.50871809 -4.99976552 -0.6097275 0 0 Z " fill="#763918" transform="translate(117,40)"/>
<path d="M0 0 C2.9375 2.0625 2.9375 2.0625 5 4 C7.27154254 2.90629433 9.22363493 1.8322738 11.25 0.3125 C15.01083799 -1.4824454 18.12904046 -1.26671643 22 0 C26.85948584 3.64461438 30.42252354 9.07173419 31.31640625 15.15234375 C31.42070199 18.8861314 31.09022705 21.86465942 29 25 C28.34 25 27.68 25 27 25 C27.04640625 24.2265625 27.0928125 23.453125 27.140625 22.65625 C27.36801425 16.09444601 27.37209245 10.26270388 23 5 C20.31264504 3.32309051 19.23444318 2.99023153 16 3.125 C11.36801922 4.47599439 9.61166129 7.08250807 7 11 C4 10 4 10 2.5625 7.5625 C0.85393716 4.76045694 0.12346876 3.89241965 -3 3 C-6.54840508 3.14785021 -8.43255282 3.55865219 -11.25 5.75 C-14.97145717 10.53473065 -15.56674766 15.03825062 -15 21 C-14.46163183 23.7243286 -13.76417877 26.32537431 -13 29 C-14.32 29.33 -15.64 29.66 -17 30 C-19.41861067 20.67107311 -20.29606816 13.89003025 -15.55078125 5.21484375 C-11.58808739 -0.44472154 -6.69614267 -1.98404227 0 0 Z " fill="#100A06" transform="translate(58,23)"/>
<path d="M0 0 C0.04898438 1.19496094 0.09796875 2.38992187 0.1484375 3.62109375 C0.68056539 15.431805 0.68056539 15.431805 3 27 C-2.05680376 24.88319842 -4.87637111 22.5119084 -8 18 C-9.25 14.4375 -9.25 14.4375 -10 11 C-10.28875 10.13375 -10.5775 9.2675 -10.875 8.375 C-11 6 -11 6 -9.1875 3.25 C-6.03224321 0.00459301 -4.4053481 -0.11593021 0 0 Z " fill="#773A18" transform="translate(35,86)"/>
<path d="M0 0 C6.6875 0.6484375 6.6875 0.6484375 9.5 3.8125 C11.14519286 7.30853482 11.0946257 7.58090442 10 11 C9.74863281 12.06347656 9.74863281 12.06347656 9.4921875 13.1484375 C7.8224214 19.17227722 5.29752475 22.62884789 0 26 C-0.99 26.33 -1.98 26.66 -3 27 C-2.86722656 26.47535156 -2.73445313 25.95070313 -2.59765625 25.41015625 C-0.68304094 17.0110044 -0.37806468 8.57609879 0 0 Z " fill="#773A18" transform="translate(93,86)"/>
<path d="M0 0 C4.07625743 1.46535931 6.83196065 3.83007483 9.73828125 6.984375 C9.40828125 7.644375 9.07828125 8.304375 8.73828125 8.984375 C3.75056068 9.07809 -1.12150141 9.07223182 -6.07421875 8.421875 C-9.36969257 8.00117621 -12.02651932 8.04512355 -15.26171875 8.984375 C-14.41753387 5.60763549 -13.46510382 3.24680735 -11.32421875 0.484375 C-7.16619968 -1.55220577 -4.44137798 -0.98563733 0 0 Z " fill="#F5B991" transform="translate(84.26171875,116.015625)"/>
<path d="M0 0 C3.67591895 1.0210886 4.9339798 1.91435217 7.3125 5 C9 8 9 8 9 10 C8.33613281 9.91621094 7.67226563 9.83242187 6.98828125 9.74609375 C2.35125261 9.21131234 -1.42918977 8.94519764 -6 10 C-9.00185316 10.09189346 -11.99764702 10.05886967 -15 10 C-15 7 -15 7 -12.5 4.375 C-8.82608913 1.44639324 -5.6045845 1.31217522 -1 1 C-0.67 0.67 -0.34 0.34 0 0 Z " fill="#F6B991" transform="translate(50,115)"/>
<path d="M0 0 C3.5625 0.125 3.5625 0.125 5.5625 1.125 C4.22916667 5.125 2.89583333 9.125 1.5625 13.125 C-2.09066671 11.87523244 -3.21815836 11.45401247 -5.4375 8.125 C-4.75196541 0.17279874 -4.75196541 0.17279874 0 0 Z " fill="#E78E61" transform="translate(31.4375,17.875)"/>
<path d="M0 0 C0.66 0 1.32 0 2 0 C2 1.98 2 3.96 2 6 C2.67546875 5.7834375 3.3509375 5.566875 4.046875 5.34375 C4.93890625 5.0653125 5.8309375 4.786875 6.75 4.5 C7.63171875 4.2215625 8.5134375 3.943125 9.421875 3.65625 C12 3 12 3 16 3 C13.69920465 6.45119303 12.89049748 6.87254971 9 8 C6.30649927 8.21447731 3.75184159 8.32498534 1.0625 8.3125 C0.02706055 8.33666992 0.02706055 8.33666992 -1.02929688 8.36132812 C-5.76655571 8.36581842 -8.94235553 7.40664672 -13 5 C-13 4.01 -13 3.02 -13 2 C-12.34 2.309375 -11.68 2.61875 -11 2.9375 C-7.29523985 4.24960255 -3.90736009 4.60264135 0 5 C0 3.35 0 1.7 0 0 Z " fill="#17110D" transform="translate(63,55)"/>
<path d="M0 0 C2.18038095 3.27057143 2.63246755 4.20519469 2 8 C-0.5 10.8125 -0.5 10.8125 -3 13 C-5.28459758 10.71540242 -5.97129748 8.87462656 -7.125 5.875 C-7.47820312 4.96492188 -7.83140625 4.05484375 -8.1953125 3.1171875 C-8.46085937 2.41851563 -8.72640625 1.71984375 -9 1 C-5.95699684 -0.52150158 -3.345915 -0.23899393 0 0 Z " fill="#E78E61" transform="translate(100,18)"/>
<path d="M0 0 C2.52438848 0.72058104 4.23697395 1.7408802 6.09375 3.59765625 C5.76375 4.25765625 5.43375 4.91765625 5.09375 5.59765625 C4.5575 5.26765625 4.02125 4.93765625 3.46875 4.59765625 C0.46440456 3.3326687 -1.67392442 3.25379183 -4.90625 3.59765625 C-6.67889049 4.73428662 -6.67889049 4.73428662 -7.90625 6.59765625 C-8.26838568 9.110553 -8.26838568 9.110553 -8.09375 11.78515625 C-8.06667969 12.68621094 -8.03960938 13.58726563 -8.01171875 14.515625 C-7.97691406 15.20269531 -7.94210938 15.88976562 -7.90625 16.59765625 C-9.90625 15.09765625 -9.90625 15.09765625 -11.90625 12.59765625 C-12.60957262 7.67439792 -12.63072436 5.74279314 -9.96875 1.53515625 C-6.20517088 -0.8458836 -4.27900479 -0.73456249 0 0 Z " fill="#ECB18B" transform="translate(32.90625,12.40234375)"/>
<path d="M0 0 C2.4375 1.5625 2.4375 1.5625 4 4 C4.55343865 6.77860435 4.59121128 9.22585478 4 12 C2 14.5 2 14.5 0 16 C0.06960937 14.96939453 0.06960937 14.96939453 0.140625 13.91796875 C0.17671875 13.01691406 0.2128125 12.11585937 0.25 11.1875 C0.29640625 10.29417969 0.3428125 9.40085937 0.390625 8.48046875 C0.23083972 5.87095532 0.23083972 5.87095532 -1.828125 4.19140625 C-5.34559003 2.26186159 -8.54175322 2.69300068 -12.375 3.5 C-13.179375 3.7475 -13.179375 3.7475 -14 4 C-9.41879718 -0.89714785 -6.59154408 -1.50333462 0 0 Z " fill="#E4AC87" transform="translate(103,13)"/>
<path d="M0 0 C3.49830777 -0.32542398 5.65680138 -0.15667763 8.875 1.3125 C12.18988081 5.50484926 11.39972769 9.84795416 11 15 C10.01 15 9.02 15 8 15 C8 13.68 8 12.36 8 11 C7.68848712 8.66365343 7.35840222 6.32961443 7 4 C4.36 4 1.72 4 -1 4 C-0.67 2.68 -0.34 1.36 0 0 Z " fill="#1F1510" transform="translate(93,15)"/>
<path d="M0 0 C1.98 0.66 3.96 1.32 6 2 C6 2.33 6 2.66 6 3 C4.02 3.33 2.04 3.66 0 4 C-1.32854177 9.9180497 -0.66464729 12.77729131 2 18 C-0.4375 17.25 -0.4375 17.25 -3 16 C-3.8125 14.375 -3.8125 14.375 -4 12 C-4.061875 11.37351562 -4.12375 10.74703125 -4.1875 10.1015625 C-4.4162494 6.25571328 -4.48240105 4.60300131 -2 1.5 C-1.34 1.005 -0.68 0.51 0 0 Z " fill="#16110D" transform="translate(28,15)"/>
<path d="M0 0 C3.10883474 1.66815523 4.06517724 3.22274156 5.5625 6.375 C5.5625 7.035 5.5625 7.695 5.5625 8.375 C4.9025 8.375 4.2425 8.375 3.5625 8.375 C3.5625 10.355 3.5625 12.335 3.5625 14.375 C3.2325 14.375 2.9025 14.375 2.5625 14.375 C2.50642578 13.45267578 2.50642578 13.45267578 2.44921875 12.51171875 C2.38347656 11.70347656 2.31773438 10.89523438 2.25 10.0625 C2.16298828 8.86173828 2.16298828 8.86173828 2.07421875 7.63671875 C1.19495879 3.75052397 -1.2133966 2.52440227 -4.4375 0.375 C-2.4375 -0.625 -2.4375 -0.625 0 0 Z " fill="#221811" transform="translate(72.4375,83.625)"/>
<path d="M0 0 C1.67542976 0.28604898 3.34385343 0.61781233 5 1 C5.33 2.32 5.66 3.64 6 5 C5.01 5 4.02 5 3 5 C3 4.34 3 3.68 3 3 C2.01 3 1.02 3 0 3 C0 3.66 0 4.32 0 5 C-0.66 5 -1.32 5 -2 5 C-1.125 1.125 -1.125 1.125 0 0 Z " fill="#1F1712" transform="translate(74,40)"/>
<path d="M0 0 C0.33 1.32 0.66 2.64 1 4 C0.34 4 -0.32 4 -1 4 C-1 3.34 -1 2.68 -1 2 C-1.99 2 -2.98 2 -4 2 C-4 2.66 -4 3.32 -4 4 C-4.99 4 -5.98 4 -7 4 C-6.625 2.0625 -6.625 2.0625 -6 0 C-3.50907189 -1.24546405 -2.58919267 -0.7767578 0 0 Z " fill="#1F1712" transform="translate(55,41)"/>
<path d="M0 0 C0.33 1.32 0.66 2.64 1 4 C1.66 4 2.32 4 3 4 C3.33 6.64 3.66 9.28 4 12 C2 10.5 2 10.5 0 8 C-0.35800135 5.24128373 -0.18660165 2.79902476 0 0 Z " fill="#C89676" transform="translate(21,17)"/>
<path d="M0 0 C1.26026798 2.52053595 0.91874445 3.8542098 0.5625 6.625 C0.40974609 7.85089844 0.40974609 7.85089844 0.25390625 9.1015625 C0.17011719 9.72804688 0.08632813 10.35453125 0 11 C-1.5625 9.375 -1.5625 9.375 -3 7 C-2.8125 3.8125 -2.8125 3.8125 -2 1 C-1.34 0.67 -0.68 0.34 0 0 Z " fill="#261B14" transform="translate(53,87)"/>
<path d="M0 0 C1.98 0.66 3.96 1.32 6 2 C6 2.33 6 2.66 6 3 C5.05125 3.12375 4.1025 3.2475 3.125 3.375 C-0.08667191 3.71687177 -0.08667191 3.71687177 -2 6 C-2.66 6 -3.32 6 -4 6 C-2.84826645 3.53199953 -1.95216435 1.95216435 0 0 Z " fill="#302018" transform="translate(28,15)"/>
<path d="M0 0 C0.66 0.33 1.32 0.66 2 1 C2 1.66 2 2.32 2 3 C-2.38461538 6 -2.38461538 6 -5 6 C-3.63016497 2.83884224 -3.0109362 2.0072908 0 0 Z " fill="#160D08" transform="translate(57,82)"/>
<path d="M0 0 C0.99 0.33 1.98 0.66 3 1 C2.67 3.31 2.34 5.62 2 8 C1.34 7.67 0.68 7.34 0 7 C0 4.69 0 2.38 0 0 Z " fill="#633014" transform="translate(38,47)"/>
<path d="M0 0 C-2 3 -2 3 -4.125 3.6875 C-4.74375 3.790625 -5.3625 3.89375 -6 4 C-6.33 3.01 -6.66 2.02 -7 1 C-3.375 -1.125 -3.375 -1.125 0 0 Z " fill="#2D221A" transform="translate(79,58)"/>
<path d="M0 0 C2.475 0.99 2.475 0.99 5 2 C5 2.99 5 3.98 5 5 C2.525 4.01 2.525 4.01 0 3 C0 2.01 0 1.02 0 0 Z " fill="#2E221B" transform="translate(50,57)"/>
</svg>
